<?xml version="1.0" standalone="no"?><!DOCTYPE svg PUBLIC "-//W3C//DTD SVG 1.1//EN" "http://www.w3.org/Graphics/SVG/1.1/DTD/svg11.dtd"><svg t="1594793961099" class="icon" viewBox="0 0 1024 1024" version="1.1" xmlns="http://www.w3.org/2000/svg" p-id="18319" xmlns:xlink="http://www.w3.org/1999/xlink" width="200" height="200"><defs><style type="text/css"></style></defs><path d="M748.15 429.21h-472.1c-11.05 0-20 8.95-20 20s8.95 20 20 20h472.1c11.05 0 20-8.95 20-20s-8.96-20-20-20zM748.15 557.05h-472.1c-11.05 0-20 8.95-20 20s8.95 20 20 20h472.1c11.05 0 20-8.95 20-20s-8.96-20-20-20z" fill="#ad663c" p-id="18320"></path><path d="M529.56 277.74c-7.64 0-14.94 4.4-18.26 11.83l-193 430.85c-4.52 10.08 0 21.91 10.08 26.43a19.92 19.92 0 0 0 8.16 1.75c7.64 0 14.94-4.4 18.26-11.83l193-430.85c4.52-10.08 0-21.91-10.08-26.43a19.92 19.92 0 0 0-8.16-1.75zM677.84 277.74c-7.64 0-14.94 4.4-18.26 11.83L466.59 720.42c-4.52 10.08 0 21.91 10.08 26.43a19.92 19.92 0 0 0 8.16 1.75c7.64 0 14.94-4.4 18.26-11.83l192.99-430.85c4.52-10.08 0-21.91-10.08-26.43a19.886 19.886 0 0 0-8.16-1.75z" fill="#ad663c" p-id="18321"></path><path d="M512.51 64.2c-247.14 0-447.49 200.35-447.49 447.49v439.07a8.42 8.42 0 0 0 8.42 8.42h439.07c126.29 0 240.35-52.31 321.71-136.45 5.12-3.96 8.29-10.33 7.76-17.41-0.72-9.8-8.66-17.78-18.46-18.54-5.66-0.44-10.86 1.48-14.76 4.86l-0.07-0.08c-2.64 2.79-5.32 5.55-8.05 8.27-37.44 37.44-81.02 66.82-129.54 87.35-50.21 21.24-103.57 32.01-158.6 32.01H113.43a8.42 8.42 0 0 1-8.42-8.42V511.69c0-55.03 10.77-108.39 32.01-158.6 20.52-48.52 49.91-92.1 87.35-129.54s81.02-66.82 129.54-87.35c50.21-21.24 103.57-32.01 158.6-32.01s108.39 10.77 158.6 32.01c48.52 20.52 92.1 49.91 129.54 87.35s66.82 81.02 87.35 129.54c21.23 50.21 32 103.57 32 158.6 0 50.98-9.26 100.52-27.5 147.46a20.032 20.032 0 0 0-2.63 11.65c0.77 9.71 8.63 17.61 18.33 18.42 9.43 0.79 17.62-4.95 20.61-13.18l0.04 0.02C948.95 625.17 960 569.72 960 511.69 960 264.55 759.65 64.2 512.51 64.2z" fill="#ad663c" p-id="18322"></path></svg>