<?xml version="1.0" standalone="no"?><!DOCTYPE svg PUBLIC "-//W3C//DTD SVG 1.1//EN" "http://www.w3.org/Graphics/SVG/1.1/DTD/svg11.dtd"><svg t="1594793948315" class="icon" viewBox="0 0 1024 1024" version="1.1" xmlns="http://www.w3.org/2000/svg" p-id="17512" xmlns:xlink="http://www.w3.org/1999/xlink" width="200" height="200"><defs><style type="text/css"></style></defs><path d="M510.540254 62.755276c-238.645239 0-432.790984 200.48615-432.790984 446.895213 0 135.815245 59.041698 257.610172 151.96404 339.631234 1.220804 1.416256 2.601244 2.708692 4.197602 3.744277 75.057463 64.562435 171.501002 103.500259 276.629341 103.500259 104.187921 0 199.889563-38.189787 274.656407-101.770871 4.03592-1.690502 7.360641-4.711302 9.575076-8.53028 90.933035-81.984223 148.557454-202.415083 148.557454-336.574618C943.330214 263.24245 749.183446 62.755276 510.540254 62.755276zM510.540254 915.279856c-92.801593 0-178.13919-33.481556-245.432829-89.239464 2.844791-33.027208 21.25407-144.729266 139.328255-207.452819 29.300326 23.768333 66.072835 38.046524 106.104573 38.046524 40.254819 0 77.244268-14.424524 106.61111-38.428218 118.553093 62.450331 137.14145 172.35137 140.031267 206.869534C689.701726 881.418654 603.896478 915.279856 510.540254 915.279856zM378.223692 478.750735c0-75.335802 59.33334-136.606261 132.316561-136.606261 72.963779 0 132.332934 61.270459 132.332934 136.606261 0 75.347059-59.370179 136.634914-132.332934 136.634914C437.557032 615.385649 378.223692 554.097794 378.223692 478.750735zM792.651446 791.504832c-10.552334-53.959959-43.617403-144.874575-146.208966-203.834408 22.701025-30.133298 36.368302-67.881017 36.368302-108.918665 0-98.060363-77.283154-177.881316-172.270529-177.881316-94.998631 0-172.272575 79.81993-172.272575 177.881316 0 41.275056 13.801331 79.201853 36.70804 109.409852-102.59361 59.379389-135.225821 150.801565-145.534608 204.469881C160.374082 719.466122 117.704261 619.624183 117.704261 509.650489c0-223.684502 176.214351-405.621181 392.835993-405.621181 216.601176 0 392.852366 181.965332 392.852366 405.621181C903.39262 619.095133 861.108584 718.467375 792.651446 791.504832z" p-id="17513" fill="#ad663c"></path></svg>