<?xml version="1.0" standalone="no"?><!DOCTYPE svg PUBLIC "-//W3C//DTD SVG 1.1//EN" "http://www.w3.org/Graphics/SVG/1.1/DTD/svg11.dtd"><svg t="1594793851189" class="icon" viewBox="0 0 1030 1024" version="1.1" xmlns="http://www.w3.org/2000/svg" p-id="16690" xmlns:xlink="http://www.w3.org/1999/xlink" width="201.171875" height="200"><defs><style type="text/css"></style></defs><path d="M299.008 40.96h51.2v903.68h-51.2zM775.68 283.136H481.792c-14.336 0-25.6-11.264-25.6-25.6s11.264-25.6 25.6-25.6h293.888c14.336 0 25.6 11.264 25.6 25.6s-11.264 25.6-25.6 25.6zM775.68 452.608H481.792c-14.336 0-25.6-11.264-25.6-25.6s11.264-25.6 25.6-25.6h293.888c14.336 0 25.6 11.264 25.6 25.6s-11.264 25.6-25.6 25.6zM775.68 803.84H481.792c-14.336 0-25.6-11.264-25.6-25.6s11.264-25.6 25.6-25.6h293.888c14.336 0 25.6 11.264 25.6 25.6s-11.264 25.6-25.6 25.6z" p-id="16691" fill="#ad663c"></path><path d="M936.448 1003.52H105.472c-14.336 0-25.6-11.264-25.6-25.6V40.96c0-14.336 11.264-25.6 25.6-25.6h830.976c14.336 0 25.6 11.264 25.6 25.6v936.96c0 14.336-11.264 25.6-25.6 25.6zM131.072 952.32h779.776V66.56H131.072v885.76z" p-id="16692" fill="#ad663c"></path></svg>